<svg xmlns="http://www.w3.org/2000/svg" viewBox="0 0 512 512">
  <defs>
    <clipPath id="headClip"><path d="M 250 84 C 320 84 382 116 402 178 C 412 208 428 238 424 262 C 420 292 392 312 356 320 C 322 328 286 332 250 332 C 214 332 178 328 144 320 C 108 312 80 292 76 262 C 72 238 88 208 98 178 C 118 116 180 84 250 84 Z"></path></clipPath>
    <clipPath id="bodyClip"><ellipse cx="250" cy="398" rx="112" ry="92"></ellipse></clipPath>
  </defs>
  <g stroke="#5B3A22" stroke-width="7" stroke-linejoin="round" stroke-linecap="round">
    
    <ellipse fill="#C9854A" cx="250" cy="398" rx="112" ry="92"></ellipse>
    
    <ellipse fill="#F7E4C3" stroke="none" clip-path="url(#bodyClip)" cx="250" cy="414" rx="80" ry="72"></ellipse>
    
    <ellipse fill="#F7E4C3" cx="182" cy="480" rx="46" ry="25"></ellipse>
    <ellipse fill="#F7E4C3" cx="318" cy="480" rx="46" ry="25"></ellipse>
    
    <ellipse fill="#C9854A" cx="172" cy="345" rx="52" ry="26" transform="rotate(30 172 345)"></ellipse>
    <ellipse fill="#C9854A" cx="328" cy="345" rx="52" ry="26" transform="rotate(-30 328 345)"></ellipse>
    <ellipse fill="#F7E4C3" cx="128" cy="320" rx="20" ry="17"></ellipse>
    <ellipse fill="#F7E4C3" cx="372" cy="320" rx="20" ry="17"></ellipse>
    
    <circle fill="#C9854A" cx="150" cy="94" r="46"></circle>
    <circle fill="#C9854A" cx="350" cy="94" r="46"></circle>
    <circle fill="#F2B98F" stroke="none" cx="150" cy="100" r="24"></circle>
    <circle fill="#F2B98F" stroke="none" cx="350" cy="100" r="24"></circle>
    
    <path fill="#C9854A" d="M 250 84 C 320 84 382 116 402 178 C 412 208 428 238 424 262 C 420 292 392 312 356 320 C 322 328 286 332 250 332 C 214 332 178 328 144 320 C 108 312 80 292 76 262 C 72 238 88 208 98 178 C 118 116 180 84 250 84 Z"></path>
    
    <ellipse fill="#F7E4C3" stroke="none" clip-path="url(#headClip)" cx="250" cy="282" rx="152" ry="88"></ellipse>
    
    <circle fill="#F5A9A0" stroke="none" cx="132" cy="266" r="26"></circle>
    <circle fill="#F5A9A0" stroke="none" cx="368" cy="266" r="26"></circle>
    
    <circle fill="#3A2416" stroke="none" cx="183" cy="216" r="29"></circle>
    <circle fill="#3A2416" stroke="none" cx="317" cy="216" r="29"></circle>
    <circle fill="#FFFFFF" stroke="none" cx="190" cy="206" r="8"></circle>
    <circle fill="#FFFFFF" stroke="none" cx="324" cy="206" r="8"></circle>
    
    <path fill="#8A5738" stroke="none" d="M 250 254 C 241 246 237 241 239 236 C 241 231 248 231 250 237 C 252 231 259 231 261 236 C 263 241 259 246 250 254 Z"></path>
    
    <ellipse fill="#5B3A22" stroke="none" cx="250" cy="280" rx="15" ry="18"></ellipse>
    
    <g transform="rotate(8 250 36)">
      <rect fill="#E9701D" x="240" y="4" width="20" height="38" rx="10"></rect>
      <circle fill="#E9701D" cx="250" cy="62" r="9"></circle>
    </g>
  </g>
</svg>